<svg width="20" height="14" viewBox="0 0 20 14" fill="none" xmlns="http://www.w3.org/2000/svg">
<g id="Group 3">
<path id="Icon zocial-email" d="M0 12.3582V1.64184C0 1.62943 0.0192864 1.5116 0.0578592 1.28835L6.59595 6.68373L0.0771459 12.7303C0.0257155 12.5566 0 12.4326 0 12.3582ZM0.867888 0.544156C0.957891 0.506947 1.06718 0.488342 1.19576 0.488342H18.8042C18.92 0.488342 19.0357 0.506947 19.1514 0.544156L12.594 5.95814L11.7261 6.62791L10.0096 7.98606L8.29315 6.62791L7.42526 5.95814L0.867888 0.544156ZM0.887174 13.4559L7.46384 7.3721L10.0096 9.36281L12.5554 7.3721L19.1321 13.4559C19.0293 13.4931 18.92 13.5117 18.8042 13.5117H1.19576C1.0929 13.5117 0.990035 13.4931 0.887174 13.4559ZM13.4233 6.68373L19.9421 1.28835C19.9807 1.39998 20 1.51781 20 1.64184V12.3582C20 12.4698 19.9807 12.5938 19.9421 12.7303L13.4233 6.68373Z" fill="#0066CC"/>
</g>
</svg>
