<svg width="20" height="20" viewBox="0 0 20 20" fill="none" xmlns="http://www.w3.org/2000/svg">
<path id="Icon awesome-linkedin" d="M18.5714 0.353424H1.42411C0.638393 0.353424 0 0.977867 0 1.74443V18.2556C0 19.0221 0.638393 19.6466 1.42411 19.6466H18.5714C19.3571 19.6466 20 19.0221 20 18.2556V1.74443C20 0.977867 19.3571 0.353424 18.5714 0.353424ZM6.04464 16.8904H3.08036V7.68309H6.04911V16.8904H6.04464ZM4.5625 6.4256C3.61161 6.4256 2.84375 5.68057 2.84375 4.76759C2.84375 3.85461 3.61161 3.10959 4.5625 3.10959C5.50893 3.10959 6.28125 3.85461 6.28125 4.76759C6.28125 5.68488 5.51339 6.4256 4.5625 6.4256ZM17.1562 16.8904H14.192V12.4116C14.192 11.3436 14.1696 9.96985 12.6518 9.96985C11.1071 9.96985 10.8705 11.1326 10.8705 12.3341V16.8904H7.90625V7.68309H10.75V8.94059H10.7902C11.1875 8.2171 12.1562 7.45485 13.5982 7.45485C16.5982 7.45485 17.1562 9.36263 17.1562 11.8432V16.8904Z" fill="#0066CC"/>
</svg>
