<svg width="20" height="20" viewBox="0 0 20 20" fill="none" xmlns="http://www.w3.org/2000/svg">
<g id="Group 5">
<path id="Icon awesome-phone" d="M0.726549 1.28082L4.78897 0.376471C5.23036 0.2785 5.68348 0.500818 5.86316 0.900238L7.73812 5.12052C7.90218 5.4898 7.79281 5.92313 7.4686 6.17559L5.10146 8.04458C6.50768 10.9347 8.96466 13.3388 12.0232 14.7217L13.9607 12.4382C14.2263 12.1254 14.6716 12.0199 15.0544 12.1782L19.4293 13.9869C19.8473 14.164 20.0777 14.6011 19.9762 15.0269L19.0387 18.9457C18.941 19.3527 18.566 19.6466 18.1246 19.6466C8.12093 19.6466 0 11.8278 0 2.16256C0 1.74053 0.300776 1.37502 0.726549 1.28082Z" fill="#0066CC"/>
</g>
</svg>
